<svg xmlns="http://www.w3.org/2000/svg" width="720" height="120" viewBox="0 0 720 120">
<defs>
 <linearGradient id="wood" x1="0" y1="0" x2="0.15" y2="1"><stop stop-color="#f8dfb2"/><stop offset="0.4" stop-color="#eabf83"/><stop offset="1" stop-color="#bd8246"/></linearGradient>
 <linearGradient id="steel" x1="0" x2="1" y1="0" y2="0"><stop stop-color="#615e5c"/><stop offset=".5" stop-color="#e3dcd1"/><stop offset="1" stop-color="#77716b"/></linearGradient>
 <g id="hanger" stroke-linejoin="round" stroke-linecap="round">
  <path d="M60 41 V35 C60 30 65 28 67 24 C76 8 63 5 56 9 C51 12 50 16 50 20" fill="none" stroke="#695d54" stroke-width="6"/>
  <path d="M60 41 V35 C60 30 65 28 67 24 C76 8 63 5 56 9 C51 12 50 16 50 20" fill="none" stroke="url(#steel)" stroke-width="3.6"/>
  <path d="M60 37 C52 37 40 46 29 53 L11 68 Q1 73 5 86 Q10 96 23 92 L60 76 L97 92 Q110 96 115 86 Q119 73 109 68 L91 53 C80 46 68 37 60 37Z" fill="url(#wood)" stroke="#ba874f" stroke-width="1"/>
  <path d="M18 80 Q60 96 102 80" fill="none" stroke="#a87441" stroke-width="7"/>
  <path d="M18 78 Q60 94 102 78" fill="none" stroke="#e6be84" stroke-width="3"/>
  <path d="M13 73 Q29 64 45 55 M75 55 Q91 64 107 73" fill="none" stroke="#fff4d6" stroke-opacity=".67" stroke-width="2"/>
 </g>
</defs>
<use href="#hanger" transform="translate(60 58) rotate(-9) translate(-60 -58)"/>
<use href="#hanger" transform="translate(180 58) rotate(-5) translate(-60 -58)"/>
<use href="#hanger" transform="translate(240 0)"/>
<use href="#hanger" transform="translate(360 0)"/>
<use href="#hanger" transform="translate(540 58) rotate(5) translate(-60 -58)"/>
<use href="#hanger" transform="translate(660 58) rotate(9) translate(-60 -58)"/>
</svg>
